<?xml version="1.0" encoding="utf-8"?>
<!-- Generator: Adobe Illustrator 15.0.0, SVG Export Plug-In . SVG Version: 6.00 Build 0)  -->
<!DOCTYPE svg PUBLIC "-//W3C//DTD SVG 1.1//EN" "http://www.w3.org/Graphics/SVG/1.1/DTD/svg11.dtd">
<svg version="1.1" id="Layer_1" xmlns="http://www.w3.org/2000/svg" xmlns:xlink="http://www.w3.org/1999/xlink" x="0px" y="0px"
	 width="427px" height="100px" viewBox="0 0 427 100" enable-background="new 0 0 427 100" xml:space="preserve">
<rect display="none" fill="#231F20" width="427" height="100"/>
<g>
	<g>
		<path fill="#FFFFFF" d="M375.716,52.43c0-19.277-55.794-34.88-124.631-34.88c-35.473,0-67.403,4.177-90.104,10.826
			c19.792-12.88,62.892-21.834,113.026-21.834c68.812,0,124.632,16.836,124.632,37.625c0,12.449-20.135,23.477-51.056,30.322
			C365.171,68.475,375.716,60.809,375.716,52.43"/>
		<path fill="#FFFFFF" d="M57.398,49.989c-1.888-1.892-4.32-3.497-7.314-3.497c-3.342,0-5.78,2.034-6.308,5.388
			c-1.441,9.044,15.012,9.562,12.667,24.44c-1.557,9.775-8.314,17.139-18.511,17.139c-3.055,0-6.697-0.965-8.88-2.787l1.633-10.346
			c2.255,1.764,4.561,2.914,7.763,2.914c3.498,0,6.635-2.326,7.222-5.98c0.654-4.229-2.445-5.826-5.144-8.025
			c-5.609-4.221-8.811-8.311-7.552-16.334c1.377-8.667,7.59-16.185,16.904-16.185c3.498,0,6.489,0.942,9.193,2.703L57.398,49.989"/>
		<path fill="#FFFFFF" d="M74.093,65.09c0.771-4.896,3.401-18.316,10.596-18.316c7.219,0,5.621,13.419,4.839,18.316
			c-0.691,4.375-3.401,18.303-10.622,18.303C71.705,83.393,73.394,69.465,74.093,65.09 M86.287,36.715
			c-9.671,0-20.517,7.743-23.782,28.375c-3.262,20.635,5.138,28.369,14.82,28.369c9.681,0,20.517-7.734,23.793-28.369
			C104.367,44.458,95.979,36.715,86.287,36.715z"/>
		<path fill="#FFFFFF" d="M121.622,37.578l8.289,33.193l0.185-0.139c-0.259-2.639-0.019-5.473,0.431-8.316l3.905-24.738h10.862
			l-8.705,54.998h-10.256l-8.164-33.18l-0.157,0.146l-0.368,5.547l-0.284,2.26l-3.998,25.227h-10.845l8.678-54.998H121.622"/>
		<polyline fill="#FFFFFF" points="163.797,37.578 155.097,92.576 144.236,92.576 152.946,37.578 163.797,37.578 		"/>
		<path fill="#FFFFFF" d="M197.255,47.947c-1.335-0.376-2.611-0.588-3.994-0.588c-9.528,0-15.057,8.685-16.404,17.134
			c-1.283,8.172,1.27,18.242,10.735,18.242c1.38,0,2.829-0.363,4.278-0.805l-1.625,10.297c-1.71,0.646-3.419,0.932-5.176,0.932
			c-15.65,0-22.083-14.146-19.789-28.576c2.158-13.641,13.385-27.644,28.176-27.644c1.885,0,3.64,0.365,5.377,1.023L197.255,47.947"
			/>
		<path fill="#FFFFFF" d="M212.207,37.578l0.51,26.266c0.045,3.873-0.43,7.809-0.676,11.666h0.139
			c1.126-3.857,2.036-7.793,3.455-11.666l9.608-26.266h8.59l1,37.932h0.144c0.974-3.857,1.648-7.648,2.924-11.521l8.455-26.41
			h11.376l-20.068,54.998h-9.4l-1.013-29.027c0.176-3.355,0.042-6.702,0.058-10.059h-0.128c-1.128,3.356-2.01,6.703-3.345,10.059
			l-10.858,29.027h-9.459l-2.37-54.998H212.207"/>
		<path fill="#FFFFFF" d="M271.146,74.709h-7.635l4.65-14.645l2.462-8.328h0.161l-0.073,8.328L271.146,74.709 M267.633,37.578
			l-21.451,54.998h10.779l3.443-9.26H271.4l0.571,9.26h11.581l-4.485-54.998H267.633z"/>
		<polyline fill="#FFFFFF" points="307.467,37.578 300.379,82.371 311.745,82.371 310.128,92.576 287.921,92.576 296.611,37.578 
			307.467,37.578 		"/>
		<polyline fill="#FFFFFF" points="334.623,37.578 327.555,82.371 338.915,82.371 337.3,92.576 315.074,92.576 323.775,37.578 
			334.623,37.578 		"/>
	</g>
	<g>
		<path fill="#FFFFFF" d="M390.857,90.033c-3.518,0-6.016-2.635-6.016-6.123c0-3.682,2.783-6.129,6.016-6.129
			c3.222,0,6.009,2.447,6.009,6.129C396.866,87.598,394.079,90.033,390.857,90.033z M390.857,78.85c-2.645,0-4.71,2.08-4.71,5.061
			c0,2.787,1.807,5.068,4.71,5.068c2.632,0,4.701-2.074,4.701-5.068C395.559,80.93,393.489,78.85,390.857,78.85z M389.65,87.416
			h-1.108v-6.779h2.571c1.627,0,2.48,0.576,2.48,1.947c0,1.227-0.765,1.738-1.771,1.852l1.901,2.98h-1.266l-1.761-2.898h-1.048
			V87.416z M390.893,83.572c0.851,0,1.579-0.082,1.579-1.07c0-0.814-0.801-0.914-1.475-0.914h-1.347v1.984H390.893z"/>
	</g>
</g>
</svg>
